<svg xmlns="http://www.w3.org/2000/svg" xmlns:xlink="http://www.w3.org/1999/xlink" version="1.1" x="0px" y="0px" viewBox="0 0 90 90" enable-background="new 0 0 90 90" xml:space="preserve"><g><path d="M84.24,25.729H75.18c-0.844-4.304-2.924-14.509-3.096-15.352c-0.045-0.341-0.246-1.613-0.963-3.009   c-1.109-2.158-2.902-3.532-5.182-3.976l-0.057-0.011l-0.059-0.007C65.246,3.314,51.566,1.87,45,1.87   c-6.565,0-20.245,1.444-20.824,1.506l-0.058,0.007L24.06,3.394c-2.28,0.443-4.072,1.817-5.182,3.976   c-0.718,1.395-0.919,2.668-0.962,3.009c-0.172,0.843-2.253,11.048-3.097,15.352H5.759c-1.504,0-2.728,1.224-2.728,2.729v2.074   c0,1.505,1.224,2.729,2.728,2.729h8.473c0.133,1.458,0.33,3.387,0.606,5.618c0.04,0.32,0.081,0.644,0.123,0.969   c-0.312,0.157-0.627,0.373-0.922,0.668c-0.826,0.827-1.245,2.032-1.245,3.582v0.022c0.002,0.108,0.053,2.691,0.798,5.789   c0.444,1.844,1.044,3.494,1.784,4.904c0.866,1.648,1.931,2.98,3.167,3.961c2.145,8.209,4.832,14.797,7.989,19.586   c2.1,3.184,4.451,5.625,6.989,7.256c2.6,1.668,5.428,2.514,8.407,2.514h6.141c2.98,0,5.809-0.846,8.408-2.514   c2.537-1.631,4.889-4.072,6.988-7.256c3.158-4.789,5.844-11.377,7.988-19.586c1.236-0.98,2.301-2.312,3.168-3.961   c0.74-1.41,1.34-3.061,1.783-4.904c0.746-3.098,0.797-5.681,0.799-5.789v-0.022c0-1.55-0.418-2.755-1.246-3.582   c-0.293-0.295-0.609-0.511-0.92-0.668c0.041-0.324,0.082-0.647,0.121-0.969c0.277-2.231,0.475-4.16,0.607-5.618h8.473   c1.504,0,2.729-1.224,2.729-2.729v-2.074C86.969,26.953,85.744,25.729,84.24,25.729z M48.07,84.942h-6.141   c-4.799,0-9.082-2.803-12.729-8.33c-2.826-4.283-5.271-10.178-7.274-17.535c0.792,0.25,1.665,0.387,2.628,0.387   c0,0,8.001,0.764,12.699-5.969c0,0,1.596-1.773,3.336-4.834c-0.004,0.188-0.007,0.379-0.007,0.574v3.42   c0.001,1.314-0.055,2.732-0.932,3.793c-0.732,0.885-1.569,1.707-1.575,2.936c-0.001,0.006-0.001,0.012-0.001,0.02   c0,0.002,0,0.002,0,0.002c0.001,0.066,0.005,0.248,0.057,0.496c0.038,0.188,0.104,0.416,0.223,0.66   c0.089,0.184,0.207,0.375,0.365,0.561c0.119,0.139,0.26,0.273,0.423,0.395c0.244,0.182,0.54,0.332,0.875,0.434   s0.71,0.154,1.123,0.154c0.509,0,0.922-0.414,0.922-0.922c0-0.51-0.413-0.924-0.922-0.924c-0.203,0-0.366-0.02-0.495-0.049   c-0.112-0.025-0.2-0.059-0.271-0.094c-0.062-0.029-0.109-0.061-0.151-0.094c-1.173-0.934,1.021-2.455,1.445-3.248   c0.184-0.344,0.321-0.697,0.426-1.049c0.157-0.531,0.238-1.062,0.282-1.576c0.044-0.516,0.05-1.018,0.05-1.494v-3.42   c0-1.627,0.16-2.871,0.388-3.812c0.171-0.706,0.379-1.242,0.587-1.647c0.155-0.304,0.311-0.533,0.451-0.708   c0.244-0.303,0.547-0.555,0.942-0.62c0.067-0.012,0.136-0.019,0.206-0.022c0.07,0.004,0.14,0.011,0.207,0.022   c0.395,0.065,0.698,0.317,0.942,0.62c0.141,0.175,0.295,0.404,0.451,0.708c0.207,0.405,0.416,0.941,0.586,1.647   c0.229,0.941,0.389,2.186,0.389,3.812v3.42c0,0.477,0.006,0.977,0.049,1.494c0.08,0.928,0.369,1.807,0.828,2.615   c0.43,0.756,1.174,1.377,1.527,2.16c0.031,0.07,0.055,0.137,0.072,0.209c0.02,0.08,0.031,0.166,0.031,0.268   c0,0.002,0,0.004,0,0.006c-0.002,0.012-0.004,0.033-0.008,0.061c-0.008,0.055-0.023,0.133-0.055,0.213   c-0.02,0.053-0.045,0.105-0.076,0.156c-0.043,0.068-0.094,0.129-0.166,0.186c-0.041,0.033-0.09,0.064-0.152,0.094   c-0.07,0.035-0.156,0.068-0.27,0.094c-0.129,0.029-0.291,0.049-0.494,0.049c-0.51,0-0.922,0.414-0.922,0.924   c0,0.508,0.412,0.922,0.922,0.922c0.412,0,0.787-0.053,1.123-0.154c0.334-0.102,0.629-0.252,0.875-0.434   c0.162-0.121,0.303-0.256,0.422-0.395c0.158-0.186,0.277-0.377,0.365-0.561c0.119-0.244,0.184-0.473,0.223-0.66   c0.053-0.248,0.057-0.43,0.057-0.496c0,0,0,0,0-0.002c0-0.008,0-0.014,0-0.02c-0.008-1.221-0.816-2.014-1.543-2.895   c-0.895-1.082-0.967-2.49-0.965-3.834v-3.42c0-0.195-0.002-0.387-0.006-0.574c1.738,3.061,3.334,4.834,3.334,4.834   c4.699,6.732,12.701,5.969,12.701,5.969c0.961,0,1.834-0.137,2.627-0.387c-2.004,7.357-4.449,13.252-7.275,17.535   C57.152,82.14,52.869,84.942,48.07,84.942z M18.305,40.796c-0.111-0.81-0.211-1.573-0.299-2.283   c-0.344-2.767-0.562-5.059-0.691-6.597h55.369c-0.129,1.538-0.348,3.83-0.689,6.597c-0.088,0.71-0.188,1.474-0.299,2.283H18.305z"></path><path d="M33.218,62.558c-0.51,0-0.922,0.412-0.922,0.922v11.137c0,0.51,0.412,0.922,0.922,0.922c0.509,0,0.922-0.412,0.922-0.922   V63.479C34.14,62.97,33.727,62.558,33.218,62.558z"></path><path d="M36.114,68.425v-4.945c0-0.51-0.413-0.922-0.922-0.922c-0.51,0-0.922,0.412-0.922,0.922v4.945   c0,0.508,0.412,0.922,0.922,0.922C35.701,69.347,36.114,68.933,36.114,68.425z"></path><path d="M37.153,69.347c0.51,0,0.922-0.414,0.922-0.922v-4.945c0-0.51-0.412-0.922-0.922-0.922c-0.509,0-0.922,0.412-0.922,0.922   v4.945C36.231,68.933,36.644,69.347,37.153,69.347z"></path><path d="M39.115,69.347c0.509,0,0.922-0.414,0.922-0.922v-4.945c0-0.51-0.413-0.922-0.922-0.922s-0.922,0.412-0.922,0.922v4.945   C38.193,68.933,38.606,69.347,39.115,69.347z"></path><path d="M41.077,69.347c0.509,0,0.922-0.414,0.922-0.922v-4.945c0-0.51-0.413-0.922-0.922-0.922c-0.51,0-0.922,0.412-0.922,0.922   v4.945C40.155,68.933,40.567,69.347,41.077,69.347z"></path><path d="M43.038,69.347c0.51,0,0.922-0.414,0.922-0.922v-4.945c0-0.51-0.412-0.922-0.922-0.922c-0.509,0-0.922,0.412-0.922,0.922   v4.945C42.116,68.933,42.529,69.347,43.038,69.347z"></path><path d="M45,69.347c0.51,0,0.922-0.414,0.922-0.922v-4.945c0-0.51-0.412-0.922-0.922-0.922c-0.509,0-0.922,0.412-0.922,0.922v4.945   C44.078,68.933,44.491,69.347,45,69.347z"></path><path d="M53.473,70.276H45h-8.474c-0.509,0-0.922,0.412-0.922,0.922s0.413,0.922,0.922,0.922H45h8.473   c0.51,0,0.922-0.412,0.922-0.922S53.982,70.276,53.473,70.276z"></path><path d="M56.781,62.558c-0.51,0-0.922,0.412-0.922,0.922v11.137c0,0.51,0.412,0.922,0.922,0.922s0.922-0.412,0.922-0.922V63.479   C57.703,62.97,57.291,62.558,56.781,62.558z"></path><path d="M54.809,62.558c-0.51,0-0.922,0.412-0.922,0.922v4.945c0,0.508,0.412,0.922,0.922,0.922c0.508,0,0.922-0.414,0.922-0.922   v-4.945C55.73,62.97,55.316,62.558,54.809,62.558z"></path><path d="M52.846,69.347c0.51,0,0.922-0.414,0.922-0.922v-4.945c0-0.51-0.412-0.922-0.922-0.922c-0.508,0-0.922,0.412-0.922,0.922   v4.945C51.924,68.933,52.338,69.347,52.846,69.347z"></path><path d="M50.885,69.347c0.51,0,0.922-0.414,0.922-0.922v-4.945c0-0.51-0.412-0.922-0.922-0.922s-0.922,0.412-0.922,0.922v4.945   C49.963,68.933,50.375,69.347,50.885,69.347z"></path><path d="M48.924,69.347c0.508,0,0.922-0.414,0.922-0.922v-4.945c0-0.51-0.414-0.922-0.922-0.922c-0.51,0-0.922,0.412-0.922,0.922   v4.945C48.002,68.933,48.414,69.347,48.924,69.347z"></path><path d="M46.961,69.347c0.51,0,0.922-0.414,0.922-0.922v-4.945c0-0.51-0.412-0.922-0.922-0.922c-0.508,0-0.922,0.412-0.922,0.922   v4.945C46.039,68.933,46.453,69.347,46.961,69.347z"></path></g></svg>